<?xml version="1.0" encoding="UTF-8" standalone="no"?>
<!-- Created with Inkscape (http://www.inkscape.org/) -->

<svg
   width="120mm"
   height="118mm"
   viewBox="43 36 120 118"
   version="1.1"
   id="svg1"
   xml:space="preserve"
   inkscape:version="1.4.2 (ebf0e940, 2025-05-08)"
   sodipodi:docname="homeassistant-mytnb.svg"
   xmlns:inkscape="http://www.inkscape.org/namespaces/inkscape"
   xmlns:sodipodi="http://sodipodi.sourceforge.net/DTD/sodipodi-0.dtd"
   xmlns="http://www.w3.org/2000/svg"
   xmlns:svg="http://www.w3.org/2000/svg"><sodipodi:namedview
     id="namedview1"
     pagecolor="#ffffff"
     bordercolor="#000000"
     borderopacity="0.25"
     inkscape:showpageshadow="2"
     inkscape:pageopacity="0.0"
     inkscape:pagecheckerboard="0"
     inkscape:deskcolor="#d1d1d1"
     inkscape:document-units="mm"
     inkscape:zoom="0.70502882"
     inkscape:cx="407.07556"
     inkscape:cy="348.92191"
     inkscape:window-width="1440"
     inkscape:window-height="815"
     inkscape:window-x="0"
     inkscape:window-y="25"
     inkscape:window-maximized="1"
     inkscape:current-layer="layer2" /><defs
     id="defs1"><inkscape:path-effect
       effect="spiro"
       id="path-effect3"
       is_visible="true"
       lpeversion="1" /><inkscape:path-effect
       effect="spiro"
       id="path-effect2"
       is_visible="true"
       lpeversion="1" /><inkscape:path-effect
       effect="spiro"
       id="path-effect1"
       is_visible="true"
       lpeversion="1" /></defs><g
     inkscape:groupmode="layer"
     id="layer2"
     inkscape:label="Layer 2"><path
       style="fill:#ffff00;fill-opacity:1;stroke:#000000;stroke-width:0.264583"
       d="m 71.153047,76.688885 10.572484,0.119148 7.35677,-15.797352 13.256599,27.385531 10.018,-17.55005 4.24026,6.332072 14.59418,0.0039 -0.2323,-5.926361 -11.01008,0.286822 -8.11515,-11.048546 -9.35695,16.804379 -13.76333,-29.145659 -10.133987,22.691755 -7.364614,0.13012 z"
       id="path2"
       inkscape:path-effect="#path-effect3"
       inkscape:original-d="m 71.153047,76.688885 10.572484,0.119148 7.35677,-15.797352 c 4.824022,8.397802 8.934398,18.725232 13.256599,27.385531 l 10.018,-17.55005 4.24026,6.332072 c 4.90548,-0.731632 9.71805,-0.529927 14.59418,0.0039 l -0.2323,-5.926361 -11.01008,0.286822 -8.11515,-11.048546 -9.35695,16.804379 -13.76333,-29.145659 -10.133987,22.691755 -7.364614,0.13012 z"
       transform="translate(3.1362528,6.4616261)"
       sodipodi:nodetypes="ccccccccccccccc" /></g><g
     inkscape:label="Layer 1"
     inkscape:groupmode="layer"
     id="layer1"
     sodipodi:insensitive="true"><g
       id="g1"
       transform="matrix(0.26458333,0,0,0.26458333,46.121462,25.382476)"><path
         style="fill:#e33f24"
         d="m 107.19415,403.55 c 0,0 -0.22823,-23.7614 0.2011,-40.37648 0.21466,-8.30754 0.36355,-18.6054 0.32722,-23.27397 -0.0363,-4.66858 -0.0486,-17.30916 -0.57488,-22.35064 -1.24441,-11.92187 -2.16191,-14.0021 -4.85639,-17.36716 -1.62144,-2.02496 -5.387767,-5.01014 -8.36963,-6.63373 C 89.015013,290.87643 87.312583,290.53596 76,289.96383 66.673853,289.49217 62.076773,288.77724 57.894718,287.14812 41.027761,280.57762 29.159856,266.00522 23.976078,245.5 c -1.93924,-7.67096 -2.021043,-10.97569 -1.988898,-80.34811 0.02887,-62.3114 0.253657,-73.340278 1.620319,-79.5 C 28.667338,62.846534 43.485454,47.695676 68.5,39.751321 l 7,-2.223125 143.38565,-0.287168 c 125.39402,-0.251134 144.12693,-0.09726 149.29339,1.226329 19.94848,5.110562 33.32379,19.765436 40.32912,44.187235 l 2.5755,8.978641 -0.34238,75.433387 c -0.31282,68.92066 -0.49666,75.9514 -2.12935,81.43338 -5.01148,16.82668 -15.60966,29.09917 -31.85183,36.88382 -10.35865,4.96475 -18.09055,7.09199 -31.08273,8.55164 -10.46271,1.17546 -14.75558,3.42614 -17.95846,9.41531 -2.13077,3.98441 -2.24102,5.49984 -2.77545,38.14923 -0.55275,33.76911 -0.5751,34.05359 -3.29039,41.89139 -6.53705,18.86944 -19.57899,30.17925 -41.06303,35.60936 -7.56006,1.91081 -11.14321,1.99731 -81,1.95536 -60.0569,-0.0361 -73.8033,-0.29398 -77.09004,-1.44637 -5.1418,-1.8028 -14.41095,-9.70773 -14.80087,-15.87935 -1.08281,-17.13846 4.83377,-20.48866 15.72672,-22.2237 25.23001,-0.071 50.85533,-0.33089 76.17627,-0.38585 L 269.70423,381 l 3.39789,-2.25145 c 1.90779,-1.2641 4.49422,-4.44348 5.89788,-7.25 L 281.5,366.5 282.06383,326 c 0.60656,-43.56909 0.7608,-44.90592 6.26465,-54.29754 5.65745,-9.6537 17.45563,-17.27909 31.25908,-20.20334 4.35105,-0.92176 12.69377,-1.47083 22.51456,-1.48176 14.52374,-0.0162 15.83696,-0.17379 19,-2.28056 1.86883,-1.24475 4.22416,-3.94835 5.23405,-6.00798 1.73249,-3.53332 1.82911,-7.71946 1.71105,-74.12923 C 367.9784,128.88815 367.54576,95.902953 367.0858,94.299156 364.9656,86.906477 360.99259,82.148331 354.76847,79.547728 351.48675,78.176536 335.57236,78 215.24401,78 H 79.42378 l -4.46189,2.25 C 71.834669,81.826966 69.752184,83.846069 68,87 l -2.5,4.5 v 72 72 l 2.299107,4.66717 C 71.764325,248.21652 72.468415,248.4295 97,249 c 21.03196,0.48912 21.62387,0.56083 27.19009,3.29424 10.41956,5.11674 19.4811,17.66735 23.27651,32.23885 0.26399,1.0135 0.41962,7.00098 0.50459,15.57743 0.085,8.57646 0.0993,19.7419 0.0805,31.11134 -0.0187,11.36944 -0.0704,29.68035 -0.11743,39.0728 -0.047,9.39245 8.11273,8.98765 8.11273,11.63314"
         id="path42"
         sodipodi:nodetypes="cssssssssssscssscssssssssssssscsscsssssssssscsscccsssssssc" /><path
         style="fill:#e33f24"
         d="m 165.00714,475.40702 c -7.93734,-3.44208 -12.01554,-10.11416 -11.99069,-19.61718 0.0195,-7.45095 2.44276,-12.4557 8.3256,-17.19478 L 165.1841,435.5 216.34205,435.25175 267.5,435.0035 l 3.95841,2.25673 c 2.17712,1.24121 5.32712,4.20419 7,6.5844 2.76117,3.92866 3.04159,5.04934 3.04159,12.15537 0,7.08427 -0.28493,8.23226 -3,12.08709 -1.65,2.34265 -4.98328,5.30641 -7.40728,6.58614 L 266.68543,477 217.59272,476.9609 c -41.58461,-0.0332 -49.62691,-0.2708 -52.58558,-1.55384 z"
         id="path11" /></g></g></svg>
